<svg xmlns="http://www.w3.org/2000/svg" viewBox="0 0 13.76 13.48"><defs><style>.cls-1{fill:#231f20;}</style></defs><title>Asset 2</title><g id="Layer_2" data-name="Layer 2"><g id="Layer_1-2" data-name="Layer 1"><path class="cls-1" d="M11.72,7.56c-.1-1.88-.22-4.14-.2-5.82h-.06C11,3.32,10.44,5,9.76,6.86L7.38,13.4H6.06L3.88,7C3.24,5.08,2.7,3.34,2.32,1.74h0c0,1.68-.14,3.94-.26,6l-.36,5.78H0L.94,0H3.16l2.3,6.52c.56,1.66,1,3.14,1.36,4.54h.06C7.22,9.7,7.7,8.22,8.3,6.52L10.7,0h2.22l.84,13.48h-1.7Z"/></g></g></svg>